<svg id="visual" viewBox="0 0 900 600" width="900" height="600" xmlns="http://www.w3.org/2000/svg" xmlns:xlink="http://www.w3.org/1999/xlink" version="1.1"><rect x="0" y="0" width="900" height="600" fill="#d3d3d3"></rect><defs><linearGradient id="grad1_0" x1="33.3%" y1="0%" x2="100%" y2="100%"><stop offset="20%" stop-color="#c850c0" stop-opacity="1"></stop><stop offset="80%" stop-color="#c850c0" stop-opacity="1"></stop></linearGradient></defs><defs><linearGradient id="grad1_1" x1="33.3%" y1="0%" x2="100%" y2="100%"><stop offset="20%" stop-color="#c850c0" stop-opacity="1"></stop><stop offset="80%" stop-color="#cb66c3" stop-opacity="1"></stop></linearGradient></defs><defs><linearGradient id="grad1_2" x1="33.3%" y1="0%" x2="100%" y2="100%"><stop offset="20%" stop-color="#ce7ac6" stop-opacity="1"></stop><stop offset="80%" stop-color="#cb66c3" stop-opacity="1"></stop></linearGradient></defs><defs><linearGradient id="grad1_3" x1="33.3%" y1="0%" x2="100%" y2="100%"><stop offset="20%" stop-color="#ce7ac6" stop-opacity="1"></stop><stop offset="80%" stop-color="#d08dc9" stop-opacity="1"></stop></linearGradient></defs><defs><linearGradient id="grad1_4" x1="33.3%" y1="0%" x2="100%" y2="100%"><stop offset="20%" stop-color="#d29fcb" stop-opacity="1"></stop><stop offset="80%" stop-color="#d08dc9" stop-opacity="1"></stop></linearGradient></defs><defs><linearGradient id="grad1_5" x1="33.3%" y1="0%" x2="100%" y2="100%"><stop offset="20%" stop-color="#d29fcb" stop-opacity="1"></stop><stop offset="80%" stop-color="#d3b0ce" stop-opacity="1"></stop></linearGradient></defs><defs><linearGradient id="grad1_6" x1="33.3%" y1="0%" x2="100%" y2="100%"><stop offset="20%" stop-color="#d3c2d1" stop-opacity="1"></stop><stop offset="80%" stop-color="#d3b0ce" stop-opacity="1"></stop></linearGradient></defs><defs><linearGradient id="grad1_7" x1="33.3%" y1="0%" x2="100%" y2="100%"><stop offset="20%" stop-color="#d3c2d1" stop-opacity="1"></stop><stop offset="80%" stop-color="#d3d3d3" stop-opacity="1"></stop></linearGradient></defs><defs><linearGradient id="grad2_0" x1="0%" y1="0%" x2="66.7%" y2="100%"><stop offset="20%" stop-color="#c850c0" stop-opacity="1"></stop><stop offset="80%" stop-color="#c850c0" stop-opacity="1"></stop></linearGradient></defs><defs><linearGradient id="grad2_1" x1="0%" y1="0%" x2="66.7%" y2="100%"><stop offset="20%" stop-color="#cb66c3" stop-opacity="1"></stop><stop offset="80%" stop-color="#c850c0" stop-opacity="1"></stop></linearGradient></defs><defs><linearGradient id="grad2_2" x1="0%" y1="0%" x2="66.7%" y2="100%"><stop offset="20%" stop-color="#cb66c3" stop-opacity="1"></stop><stop offset="80%" stop-color="#ce7ac6" stop-opacity="1"></stop></linearGradient></defs><defs><linearGradient id="grad2_3" x1="0%" y1="0%" x2="66.7%" y2="100%"><stop offset="20%" stop-color="#d08dc9" stop-opacity="1"></stop><stop offset="80%" stop-color="#ce7ac6" stop-opacity="1"></stop></linearGradient></defs><defs><linearGradient id="grad2_4" x1="0%" y1="0%" x2="66.7%" y2="100%"><stop offset="20%" stop-color="#d08dc9" stop-opacity="1"></stop><stop offset="80%" stop-color="#d29fcb" stop-opacity="1"></stop></linearGradient></defs><defs><linearGradient id="grad2_5" x1="0%" y1="0%" x2="66.7%" y2="100%"><stop offset="20%" stop-color="#d3b0ce" stop-opacity="1"></stop><stop offset="80%" stop-color="#d29fcb" stop-opacity="1"></stop></linearGradient></defs><defs><linearGradient id="grad2_6" x1="0%" y1="0%" x2="66.7%" y2="100%"><stop offset="20%" stop-color="#d3b0ce" stop-opacity="1"></stop><stop offset="80%" stop-color="#d3c2d1" stop-opacity="1"></stop></linearGradient></defs><defs><linearGradient id="grad2_7" x1="0%" y1="0%" x2="66.7%" y2="100%"><stop offset="20%" stop-color="#d3d3d3" stop-opacity="1"></stop><stop offset="80%" stop-color="#d3c2d1" stop-opacity="1"></stop></linearGradient></defs><g transform="translate(900, 0)"><path d="M0 405.6C-20.1 375 -40.2 344.4 -68.5 344.3C-96.8 344.1 -133.3 374.5 -148.1 357.5C-162.9 340.6 -155.8 276.4 -170.6 255.3C-185.3 234.1 -221.9 255.9 -261.6 261.6C-301.4 267.3 -344.4 256.8 -337.3 225.4C-330.2 193.9 -273 141.4 -279.9 116C-286.8 90.6 -357.8 92.3 -389.4 77.5C-421 62.6 -413.3 31.3 -405.6 0L0 0Z" fill="#d3cad2"></path><path d="M0 354.9C-17.6 328.1 -35.1 301.3 -59.9 301.2C-84.7 301.1 -116.7 327.7 -129.6 312.8C-142.5 298 -136.3 241.9 -149.2 223.4C-162.2 204.8 -194.1 223.9 -228.9 228.9C-263.7 233.9 -301.3 224.7 -295.1 197.2C-288.9 169.6 -238.9 123.7 -244.9 101.5C-251 79.2 -313 80.7 -340.7 67.8C-368.4 54.8 -361.6 27.4 -354.9 0L0 0Z" fill="#d3b9cf"></path><path d="M0 304.2C-15.1 281.3 -30.1 258.3 -51.4 258.2C-72.6 258.1 -100 280.8 -111.1 268.2C-122.1 255.5 -116.9 207.3 -127.9 191.4C-139 175.6 -166.4 192 -196.2 196.2C-226 200.5 -258.3 192.6 -252.9 169C-247.6 145.4 -204.8 106 -210 87C-215.1 67.9 -268.3 69.2 -292 58.1C-315.7 47 -310 23.5 -304.2 0L0 0Z" fill="#d3a8cd"></path><path d="M0 253.5C-12.6 234.4 -25.1 215.2 -42.8 215.2C-60.5 215.1 -83.3 234 -92.6 223.5C-101.8 212.9 -97.4 172.8 -106.6 159.5C-115.8 146.3 -138.7 160 -163.5 163.5C-188.4 167.1 -215.2 160.5 -210.8 140.8C-206.4 121.2 -170.7 88.3 -175 72.5C-179.3 56.6 -223.6 57.7 -243.4 48.4C-263.1 39.2 -258.3 19.6 -253.5 0L0 0Z" fill="#d196ca"></path><path d="M0 202.8C-10 187.5 -20.1 172.2 -34.2 172.1C-48.4 172.1 -66.7 187.2 -74 178.8C-81.4 170.3 -77.9 138.2 -85.3 127.6C-92.7 117 -110.9 128 -130.8 130.8C-150.7 133.7 -172.2 128.4 -168.6 112.7C-165.1 96.9 -136.5 70.7 -140 58C-143.4 45.3 -178.9 46.1 -194.7 38.7C-210.5 31.3 -206.7 15.7 -202.8 0L0 0Z" fill="#cf83c7"></path><path d="M0 152.1C-7.5 140.6 -15.1 129.1 -25.7 129.1C-36.3 129 -50 140.4 -55.5 134.1C-61.1 127.7 -58.4 103.7 -64 95.7C-69.5 87.8 -83.2 96 -98.1 98.1C-113 100.2 -129.1 96.3 -126.5 84.5C-123.8 72.7 -102.4 53 -105 43.5C-107.6 34 -134.2 34.6 -146 29C-157.9 23.5 -155 11.7 -152.1 0L0 0Z" fill="#cd70c4"></path><path d="M0 101.4C-5 93.8 -10 86.1 -17.1 86.1C-24.2 86 -33.3 93.6 -37 89.4C-40.7 85.2 -39 69.1 -42.6 63.8C-46.3 58.5 -55.5 64 -65.4 65.4C-75.3 66.8 -86.1 64.2 -84.3 56.3C-82.5 48.5 -68.3 35.3 -70 29C-71.7 22.6 -89.4 23.1 -97.3 19.4C-105.2 15.7 -103.3 7.8 -101.4 0L0 0Z" fill="#ca5bc2"></path><path d="M0 50.7C-2.5 46.9 -5 43 -8.6 43C-12.1 43 -16.7 46.8 -18.5 44.7C-20.4 42.6 -19.5 34.6 -21.3 31.9C-23.2 29.3 -27.7 32 -32.7 32.7C-37.7 33.4 -43 32.1 -42.2 28.2C-41.3 24.2 -34.1 17.7 -35 14.5C-35.9 11.3 -44.7 11.5 -48.7 9.7C-52.6 7.8 -51.7 3.9 -50.7 0L0 0Z" fill="#c850c0"></path></g><g transform="translate(0, 600)"><path d="M0 -405.6C19.7 -362.2 39.3 -318.7 61.6 -309.9C84 -301.1 108.9 -326.9 142.4 -343.7C175.8 -360.5 217.8 -368.2 225.4 -337.3C232.9 -306.3 206.1 -236.6 200.8 -200.8C195.5 -165.1 211.6 -163.3 239.5 -160C267.3 -156.7 306.8 -151.9 332.6 -137.8C358.4 -123.6 370.6 -100.2 380.5 -75.7C390.4 -51.2 398 -25.6 405.6 0L0 0Z" fill="#d3cad2"></path><path d="M0 -354.9C17.2 -316.9 34.4 -278.9 53.9 -271.2C73.5 -263.5 95.3 -286 124.6 -300.7C153.8 -315.4 190.5 -322.2 197.2 -295.1C203.8 -268 180.4 -207 175.7 -175.7C171.1 -144.4 185.2 -142.9 209.5 -140C233.9 -137.1 268.4 -132.9 291 -120.5C313.6 -108.2 324.3 -87.7 333 -66.2C341.6 -44.8 348.3 -22.4 354.9 0L0 0Z" fill="#d3b9cf"></path><path d="M0 -304.2C14.8 -271.6 29.5 -239.1 46.2 -232.4C63 -225.8 81.7 -245.2 106.8 -257.8C131.9 -270.3 163.3 -276.2 169 -252.9C174.7 -229.7 154.6 -177.4 150.6 -150.6C146.6 -123.8 158.7 -122.5 179.6 -120C200.5 -117.5 230.1 -113.9 249.4 -103.3C268.8 -92.7 278 -75.2 285.4 -56.8C292.8 -38.4 298.5 -19.2 304.2 0L0 0Z" fill="#d3a8cd"></path><path d="M0 -253.5C12.3 -226.4 24.6 -199.2 38.5 -193.7C52.5 -188.2 68.1 -204.3 89 -214.8C109.9 -225.3 136.1 -230.1 140.8 -210.8C145.6 -191.4 128.8 -147.9 125.5 -125.5C122.2 -103.2 132.3 -102.1 149.7 -100C167 -97.9 191.7 -94.9 207.9 -86.1C224 -77.3 231.7 -62.6 237.8 -47.3C244 -32 248.8 -16 253.5 0L0 0Z" fill="#d196ca"></path><path d="M0 -202.8C9.8 -181.1 19.7 -159.4 30.8 -155C42 -150.6 54.5 -163.4 71.2 -171.8C87.9 -180.2 108.9 -184.1 112.7 -168.6C116.5 -153.1 103.1 -118.3 100.4 -100.4C97.7 -82.5 105.8 -81.6 119.7 -80C133.6 -78.4 153.4 -75.9 166.3 -68.9C179.2 -61.8 185.3 -50.1 190.3 -37.8C195.2 -25.6 199 -12.8 202.8 0L0 0Z" fill="#cf83c7"></path><path d="M0 -152.1C7.4 -135.8 14.8 -119.5 23.1 -116.2C31.5 -112.9 40.8 -122.6 53.4 -128.9C65.9 -135.2 81.7 -138.1 84.5 -126.5C87.4 -114.9 77.3 -88.7 75.3 -75.3C73.3 -61.9 79.4 -61.2 89.8 -60C100.2 -58.8 115 -57 124.7 -51.7C134.4 -46.4 139 -37.6 142.7 -28.4C146.4 -19.2 149.3 -9.6 152.1 0L0 0Z" fill="#cd70c4"></path><path d="M0 -101.4C4.9 -90.5 9.8 -79.7 15.4 -77.5C21 -75.3 27.2 -81.7 35.6 -85.9C44 -90.1 54.4 -92.1 56.3 -84.3C58.2 -76.6 51.5 -59.1 50.2 -50.2C48.9 -41.3 52.9 -40.8 59.9 -40C66.8 -39.2 76.7 -38 83.1 -34.4C89.6 -30.9 92.7 -25.1 95.1 -18.9C97.6 -12.8 99.5 -6.4 101.4 0L0 0Z" fill="#ca5bc2"></path><path d="M0 -50.7C2.5 -45.3 4.9 -39.8 7.7 -38.7C10.5 -37.6 13.6 -40.9 17.8 -43C22 -45.1 27.2 -46 28.2 -42.2C29.1 -38.3 25.8 -29.6 25.1 -25.1C24.4 -20.6 26.5 -20.4 29.9 -20C33.4 -19.6 38.3 -19 41.6 -17.2C44.8 -15.5 46.3 -12.5 47.6 -9.5C48.8 -6.4 49.8 -3.2 50.7 0L0 0Z" fill="#c850c0"></path></g></svg>